<?xml version="1.0" encoding="UTF-8"?>
<svg version="1.1" xmlns="http://www.w3.org/2000/svg" width="1254" height="1254">
<path d="M0 0 C413.82 0 827.64 0 1254 0 C1254 413.82 1254 827.64 1254 1254 C840.18 1254 426.36 1254 0 1254 C0 840.18 0 426.36 0 0 Z " fill="#0E0E0E" transform="translate(0,0)"/>
<path d="M0 0 C1.04812866 0.00060425 2.09625732 0.0012085 3.17614746 0.00183105 C18.25565896 0.02546033 33.15201679 0.23669178 48.125 2.1875 C49.16285645 2.31640625 50.20071289 2.4453125 51.27001953 2.578125 C113.19144428 10.42847144 174.13326381 32.18056948 220.2734375 75.5234375 C222.95264019 78.02647344 225.68406463 80.45430606 228.4375 82.875 C232.02327381 86.09534463 235.25910965 89.43024315 238.36328125 93.11328125 C240.30880918 95.40391391 242.33823395 97.60269896 244.375 99.8125 C248.02780991 103.86561785 251.49054237 108.03552629 254.875 112.3125 C255.54644043 113.15482178 255.54644043 113.15482178 256.23144531 114.01416016 C259.51982734 118.21679539 262.37123645 122.61909205 265.125 127.1875 C264.16980469 128.00992188 263.21460938 128.83234375 262.23046875 129.6796875 C255.2483775 135.70370132 248.3271983 141.77485816 241.5234375 148 C237.07442548 152.05773083 232.5273653 155.99669015 227.94140625 159.8984375 C222.18528544 164.80099821 216.47720046 169.72800557 210.9375 174.875 C206.4700947 179.02571362 201.83183503 182.8939928 197.07421875 186.70703125 C192.79459726 190.306448 188.74882682 194.14707214 184.71923828 198.02294922 C180.33608895 202.1875 180.33608895 202.1875 178.125 202.1875 C176.83755886 200.73720831 175.62263224 199.22252843 174.4375 197.6875 C152.20029925 169.99790868 122.55985725 144.95351823 88.5703125 133.37109375 C85.125 132.1875 85.125 132.1875 81.8359375 130.72265625 C77.24680285 128.71610993 72.45469552 127.47831326 67.625 126.1875 C66.65103271 125.92549805 65.67706543 125.66349609 64.67358398 125.39355469 C56.8682869 123.32485148 49.08358632 121.56968695 41.125 120.1875 C40.08577393 120.00574219 39.04654785 119.82398438 37.97583008 119.63671875 C27.26864574 117.99199479 16.66516226 117.8822091 5.84667969 117.92675781 C2.76216874 117.93745779 -0.32175687 117.92681645 -3.40625 117.9140625 C-14.97960938 117.9061789 -26.45063047 118.17352284 -37.875 120.1875 C-38.205 120.5175 -38.535 120.8475 -38.875 121.1875 C-40.174375 121.414375 -41.47375 121.64125 -42.8125 121.875 C-68.38345661 126.87960151 -92.41816196 139.99595651 -107.296875 161.7578125 C-110.19803233 166.22444582 -112.55781049 170.52537349 -114.5 175.5 C-115.13808594 177.10294922 -115.13808594 177.10294922 -115.7890625 178.73828125 C-117.91919706 185.50414031 -118.03576548 192.22208241 -118 199.25 C-118.00386719 200.01376953 -118.00773438 200.77753906 -118.01171875 201.56445312 C-117.9847198 217.3453386 -111.3573271 230.24666873 -100.5625 241.625 C-94.59658956 247.28496632 -88.12871645 251.37019998 -80.875 255.1875 C-80.23159668 255.52700684 -79.58819336 255.86651367 -78.92529297 256.21630859 C-68.75647545 261.60546472 -68.75647545 261.60546472 -57.96484375 265.51953125 C-55.875 266.1875 -55.875 266.1875 -52.65625 267.60546875 C-48.67948627 269.33898415 -44.6104254 270.52313738 -40.4375 271.6875 C-39.00043148 272.0906595 -37.56422479 272.49690393 -36.12890625 272.90625 C-35.50314697 273.08091797 -34.8773877 273.25558594 -34.23266602 273.43554688 C-32.15098921 274.0994761 -30.13638288 274.8430942 -28.09741211 275.62573242 C-24.13689718 277.1252789 -20.14381903 278.33487714 -16.0625 279.45703125 C-15.34074585 279.65825089 -14.6189917 279.85947052 -13.87536621 280.06678772 C-11.54303458 280.7153289 -9.20914557 281.35802052 -6.875 282 C-6.06667725 282.22359192 -5.25835449 282.44718384 -4.42553711 282.67755127 C4.89708245 285.25564421 14.22665714 287.77289261 23.625 290.0625 C163.14298513 324.17967121 163.14298513 324.17967121 215.125 369.1875 C215.94097656 369.89261719 216.75695312 370.59773438 217.59765625 371.32421875 C232.73809561 384.68907568 244.93099989 398.71858706 255.125 416.1875 C255.60839844 416.98929688 256.09179688 417.79109375 256.58984375 418.6171875 C259.38252063 423.38765682 261.35699717 428.22021069 263.16015625 433.44140625 C264.06755303 436.02399707 265.07270392 438.5361705 266.125 441.0625 C281.44231938 479.19844238 278.4814583 522.83139654 270.125 562.1875 C269.465 562.1875 268.805 562.1875 268.125 562.1875 C268.01285156 563.18910156 267.90070312 564.19070313 267.78515625 565.22265625 C267.21007743 569.20820251 266.00400186 572.87596679 264.5625 576.625 C264.30001465 577.31384277 264.0375293 578.00268555 263.76708984 578.71240234 C260.73405661 586.46661673 257.04081071 593.84722316 253.125 601.1875 C252.64160156 602.10426514 252.64160156 602.10426514 252.1484375 603.03955078 C240.78474601 624.42153736 224.02050784 643.20815959 205.125 658.1875 C204.61130859 658.59935547 204.09761719 659.01121094 203.56835938 659.43554688 C195.77350128 665.67335564 187.76181451 671.14596323 179.125 676.1875 C177.990625 676.85652344 176.85625 677.52554688 175.6875 678.21484375 C163.63818625 685.26019999 151.57452932 691.30265644 138.328125 695.73046875 C135.25239024 696.76376917 132.26393148 697.93609684 129.265625 699.17578125 C124.14432073 701.24792015 118.96164604 702.7763538 113.625 704.1875 C112.18181396 704.57204346 112.18181396 704.57204346 110.70947266 704.96435547 C107.85097805 705.71763618 104.98921993 706.4563189 102.125 707.1875 C101.36155273 707.38375977 100.59810547 707.58001953 99.81152344 707.78222656 C82.66735422 712.10949969 64.86985819 714.62932137 47.24975586 715.93481445 C45.07390165 716.07202448 45.07390165 716.07202448 43.125 717.1875 C40.36038367 717.42416123 37.61777042 717.60298783 34.84765625 717.734375 C34.00284195 717.77600769 33.15802765 717.81764038 32.28761292 717.86053467 C22.38163973 718.31408646 12.47776651 718.4302548 2.5625 718.4375 C1.59098999 718.43850708 0.61947998 718.43951416 -0.38146973 718.44055176 C-28.07608806 718.4213343 -59.5088939 718.28963649 -85.875 709.1875 C-88.05798975 708.80651962 -90.24630181 708.45551593 -92.4375 708.125 C-100.67701042 706.72103013 -108.59361384 704.29573494 -116.5625 701.8125 C-118.37826538 701.24970337 -118.37826538 701.24970337 -120.23071289 700.67553711 C-130.37825957 697.46629533 -140.50230455 694.09331836 -149.9453125 689.13671875 C-152.06876476 688.09218657 -154.22221886 687.26913833 -156.4375 686.4375 C-162.85931591 683.91779513 -168.8462817 680.60976259 -174.87646484 677.28613281 C-176.85589228 676.19800388 -178.8433777 675.12584081 -180.83203125 674.0546875 C-200.28125221 663.47167152 -218.67070033 650.26814385 -234.875 635.1875 C-236.12168915 634.12111713 -237.37162796 633.05852009 -238.625 632 C-247.64801201 624.1347268 -256.27382608 615.43428889 -263.875 606.1875 C-264.33729004 605.62836914 -264.79958008 605.06923828 -265.27587891 604.49316406 C-285.875 579.54104506 -285.875 579.54104506 -285.875 576.1875 C-283.84770072 574.46414364 -281.80966777 572.8493831 -279.6875 571.25 C-274.73258492 567.44275859 -269.87179799 563.56409801 -265.125 559.5 C-260.70003939 555.72119693 -256.22311084 552.02620925 -251.6640625 548.41015625 C-248.07006463 545.5460319 -244.50321331 542.64921709 -240.9375 539.75 C-239.89916016 538.90574463 -239.89916016 538.90574463 -238.83984375 538.04443359 C-233.17588539 533.43644478 -227.52272052 528.81537418 -221.875 524.1875 C-219.13572623 521.94591975 -216.39617236 519.7047538 -213.65234375 517.46875 C-211.7163167 515.87853932 -209.79271518 514.2731316 -207.87890625 512.65625 C-206.90824219 511.8415625 -205.93757813 511.026875 -204.9375 510.1875 C-204.06222656 509.445 -203.18695313 508.7025 -202.28515625 507.9375 C-200.02982313 506.29991615 -198.59572364 505.59150537 -195.875 505.1875 C-195.42253906 505.78433594 -194.97007812 506.38117188 -194.50390625 506.99609375 C-184.15896982 520.15704312 -172.07065365 531.91286565 -158.875 542.1875 C-157.12428621 543.66582177 -155.37430731 545.1450142 -153.625 546.625 C-142.86139262 555.40382872 -131.04282835 562.49371283 -118.86132812 569.10839844 C-116.88712018 570.18091554 -114.92003212 571.26572739 -112.953125 572.3515625 C-98.7376358 580.14220628 -83.99067236 585.34978936 -68.59472656 590.31103516 C-66.99600366 590.82624298 -65.39843977 591.34511763 -63.80371094 591.87255859 C-56.0821043 594.41840378 -48.24802351 595.94321813 -40.25 597.3125 C-39.32703125 597.47137695 -38.4040625 597.63025391 -37.453125 597.79394531 C-21.29882767 600.40746412 -5.25716084 601.50768872 11.09594727 601.39331055 C13.87720528 601.37456386 16.65813733 601.37280508 19.43945312 601.37304688 C21.21354458 601.36814692 22.98763378 601.36232539 24.76171875 601.35546875 C25.59064133 601.35435593 26.4195639 601.3532431 27.27360535 601.35209656 C31.00363263 601.67745182 31.00363263 601.67745182 34.125 600.1875 C35.66838021 600.02693683 37.21674736 599.91401988 38.765625 599.8203125 C45.95454401 599.21930216 52.8588238 597.698886 59.875 596.0625 C60.53730621 595.90854767 61.19961243 595.75459534 61.88198853 595.59597778 C72.01299505 593.21504812 81.04297126 590.30732961 90.125 585.1875 C91.09566406 584.70667969 92.06632812 584.22585938 93.06640625 583.73046875 C111.98572062 574.17871476 123.49158407 558.98446751 130.44140625 539.49609375 C135.72322224 522.1415555 134.50733312 502.35947602 126.125 486.1875 C106.38888324 452.52000671 64.75912453 440.19642481 29.18069458 430.88272095 C24.27339458 429.60532825 19.3635646 428.33785148 14.45204163 427.07679749 C6.67788936 425.0795443 -1.07882672 423.01888258 -8.83462524 420.95172119 C-19.34013014 418.15370792 -29.85517815 415.40569518 -40.40893555 412.79443359 C-45.38576895 411.56288375 -50.35450628 410.30550542 -55.3125 409 C-57.04306641 408.54560547 -57.04306641 408.54560547 -58.80859375 408.08203125 C-61.875 407.1875 -61.875 407.1875 -64.42578125 406.1640625 C-68.03731603 404.72405661 -71.76773717 403.95056283 -75.546875 403.06640625 C-78.87058643 402.18866556 -82.09185397 401.15097382 -85.34521484 400.04614258 C-88.10864353 399.10819829 -90.87973985 398.19560772 -93.65234375 397.28515625 C-95.70574304 396.60681284 -97.75912825 395.92842679 -99.8125 395.25 C-100.83279297 394.91548828 -101.85308594 394.58097656 -102.90429688 394.23632812 C-109.33141562 392.10762702 -115.61314553 389.75802661 -121.875 387.1875 C-123.65732867 386.47990574 -125.43988884 385.77289438 -127.22265625 385.06640625 C-155.67150476 373.61726722 -182.7036647 359.4455318 -205.875 339.1875 C-206.84977295 338.34034424 -206.84977295 338.34034424 -207.84423828 337.47607422 C-216.96822086 329.4725411 -224.7513719 321.00539911 -231.875 311.1875 C-232.52984375 310.30320312 -233.1846875 309.41890625 -233.859375 308.5078125 C-240.92929333 298.71628843 -246.61859303 288.48945019 -250.875 277.1875 C-251.12668945 276.51992676 -251.37837891 275.85235352 -251.63769531 275.16455078 C-254.5003248 267.506065 -257.27673649 259.98504839 -258.55078125 251.875 C-258.7169609 250.15854233 -258.7169609 250.15854233 -259.875 249.1875 C-266.5168124 214.21420659 -265.30063781 173.44177212 -251.875 140.1875 C-251.50761719 139.22199219 -251.14023437 138.25648438 -250.76171875 137.26171875 C-242.84212839 117.14976934 -231.22035438 99.25449768 -216.875 83.1875 C-216.41448242 82.66526855 -215.95396484 82.14303711 -215.47949219 81.60498047 C-168.55841641 28.48585089 -95.96322589 5.03380834 -27.02148438 0.37939453 C-18.02642404 -0.0948046 -9.00461453 -0.00956167 0 0 Z " fill="#FDFCFD" transform="translate(631.875,266.8125)"/>
<path d="M0 0 C68.64 0 137.28 0 208 0 C208 0.33 208 0.66 208 1 C207.21689453 1.11480713 206.43378906 1.22961426 205.62695312 1.34790039 C164.81272849 7.44442096 127.49190887 20.30304863 94 45 C93.41057617 45.43248047 92.82115234 45.86496094 92.21386719 46.31054688 C41.33879352 84.00628391 10.98482688 140.20626839 1.69921875 202.19921875 C1.46475519 203.79927601 1.23111354 205.39945543 1 207 C0.67 207 0.34 207 0 207 C0 138.69 0 70.38 0 0 Z " fill="#000000" transform="translate(0,0)"/>
<path d="M0 0 C0.33 0 0.66 0 1 0 C1 66.66 1 133.32 1 202 C-67.64 202 -136.28 202 -207 202 C-207 201.67 -207 201.34 -207 201 C-206.31301025 200.91548584 -205.62602051 200.83097168 -204.91821289 200.74389648 C-174.28383401 196.8666734 -145.24519909 188.70422226 -118 174 C-116.845 173.38640625 -115.69 172.7728125 -114.5 172.140625 C-88.99994328 158.11559381 -65.62035678 138.18635396 -48 115 C-47.58331055 114.45972168 -47.16662109 113.91944336 -46.73730469 113.36279297 C-20.78673793 79.60434234 -6.28380742 41.86007078 0 0 Z " fill="#000000" transform="translate(1253,1052)"/>
<path d="M0 0 C1.134375 0.020625 2.26875 0.04125 3.4375 0.0625 C3.1075 0.7225 2.7775 1.3825 2.4375 2.0625 C1.1175 1.7325 -0.2025 1.4025 -1.5625 1.0625 C-1.8925 2.0525 -2.2225 3.0425 -2.5625 4.0625 C-5.8625 4.7225 -9.1625 5.3825 -12.5625 6.0625 C-12.5625 5.4025 -12.5625 4.7425 -12.5625 4.0625 C-13.2225 3.7325 -13.8825 3.4025 -14.5625 3.0625 C-13.85222656 2.92972656 -13.14195312 2.79695313 -12.41015625 2.66015625 C-11.49105469 2.48355469 -10.57195313 2.30695313 -9.625 2.125 C-8.25021484 1.86396484 -8.25021484 1.86396484 -6.84765625 1.59765625 C-0.02761628 0.0004845 -0.02761628 0.0004845 0 0 Z " fill="#303030" transform="translate(597.5625,385.9375)"/>
<path d="M0 0 C0.66 0.33 1.32 0.66 2 1 C0.76110404 2.48847937 -0.4915672 3.96550105 -1.75 5.4375 C-2.79414062 6.67306641 -2.79414062 6.67306641 -3.859375 7.93359375 C-6.01343015 10.01296451 -7.08310781 10.63867326 -10 11 C-6.79239749 7.19364503 -3.59253891 3.45436433 0 0 Z " fill="#252626" transform="translate(539,411)"/>
<path d="M0 0 C1.60597325 0.45196245 3.20972508 0.91182327 4.8125 1.375 C6.15248047 1.75785156 6.15248047 1.75785156 7.51953125 2.1484375 C10 3 10 3 13 5 C6.375 6.25 6.375 6.25 3 4 C3.33 3.34 3.66 2.68 4 2 C3.01 2.33 2.02 2.66 1 3 C0.67 2.01 0.34 1.02 0 0 Z " fill="#373737" transform="translate(691,706)"/>
<path d="M0 0 C0.66 0.33 1.32 0.66 2 1 C-4.31117397 8.91607732 -4.31117397 8.91607732 -9 11 C-9.66 10.67 -10.32 10.34 -11 10 C-5.555 5.05 -5.555 5.05 0 0 Z " fill="#2B2B2C" transform="translate(846,916)"/>
<path d="M0 0 C0 0.66 0 1.32 0 2 C-4.46236469 3.80619523 -7.31034294 4.11658501 -12 3 C-7.85930434 0.85826087 -4.68855996 -0.12671784 0 0 Z " fill="#1D1D1D" transform="translate(754,969)"/>
<path d="M0 0 C0.66 0.33 1.32 0.66 2 1 C2 1.66 2 2.32 2 3 C0.75579353 3.5345256 -0.49570936 4.05208611 -1.75 4.5625 C-2.44609375 4.85253906 -3.1421875 5.14257812 -3.859375 5.44140625 C-6.30012784 6.07831803 -7.6403655 5.80248831 -10 5 C-8.38007835 4.13624104 -6.75388139 3.28424146 -5.125 2.4375 C-4.22007812 1.96183594 -3.31515625 1.48617187 -2.3828125 0.99609375 C-1.20332031 0.50302734 -1.20332031 0.50302734 0 0 Z " fill="#424242" transform="translate(794,951)"/>
<path d="M0 0 C0 0.33 0 0.66 0 1 C-1.15628906 1.19916016 -1.15628906 1.19916016 -2.3359375 1.40234375 C-3.33882812 1.57894531 -4.34171875 1.75554687 -5.375 1.9375 C-6.87160156 2.19853516 -6.87160156 2.19853516 -8.3984375 2.46484375 C-10.96909656 2.87712062 -10.96909656 2.87712062 -13 4 C-14.67654729 3.72057545 -16.34608154 3.39171753 -18 3 C-18 2.67 -18 2.34 -18 2 C-11.88019467 0.59545452 -6.28260706 -0.23268915 0 0 Z " fill="#C2C1C1" transform="translate(579,271)"/>
<path d="M0 0 C0 0.66 0 1.32 0 2 C-6.96428571 5.34821429 -6.96428571 5.34821429 -11 4 C-9.73308493 3.32591692 -8.46129251 2.66099503 -7.1875 2 C-6.47980469 1.62875 -5.77210938 1.2575 -5.04296875 0.875 C-3 0 -3 0 0 0 Z " fill="#343435" transform="translate(568,395)"/>
<path d="M0 0 C0.66 0 1.32 0 2 0 C1.4140625 6.15234375 1.4140625 6.15234375 1 8 C0.01 8.495 0.01 8.495 -1 9 C-2.0326802 6.21176345 -2.04509293 5.1322726 -1.0625 2.25 C-0.711875 1.5075 -0.36125 0.765 0 0 Z " fill="#DBDADA" transform="translate(761,810)"/>
<path d="M0 0 C0.66 0.33 1.32 0.66 2 1 C1.67 4.3 1.34 7.6 1 11 C0.67 11 0.34 11 0 11 C-0.84098656 6.98195309 -1.05404945 3.98196457 0 0 Z " fill="#323131" transform="translate(371,430)"/>
<path d="M0 0 C1.65 1.65 3.3 3.3 5 5 C4.67 5.99 4.34 6.98 4 8 C1.10067643 5.60490662 0.49831724 3.68754757 0 0 Z " fill="#E3E1E2" transform="translate(876,668)"/>
<path d="M0 0 C0.66 0.66 1.32 1.32 2 2 C1.75 5.0625 1.75 5.0625 1 8 C0.01 8.495 0.01 8.495 -1 9 C-0.67 6.03 -0.34 3.06 0 0 Z " fill="#E5E5E5" transform="translate(372,437)"/>
<path d="M0 0 C0.99 0.33 1.98 0.66 3 1 C1.35 2.65 -0.3 4.3 -2 6 C-2 2 -2 2 0 0 Z " fill="#252526" transform="translate(528,423)"/>
</svg>
